<svg aria-hidden="true" style="position:absolute;width:0;height:0;overflow:hidden" xmlns="http://www.w3.org/2000/svg"><defs><symbol id="icon-facebook-1" viewBox="0 0 32 32"><path d="M0 0h32v32H0V0z"/><path fill="#f4f4fd" style="fill:var(--color2, #f4f4fd)" d="M21.329 5.313h2.921V.225C23.746.156 22.013 0 19.994 0c-4.212 0-7.097 2.649-7.097 7.519V12H8.249v5.688h4.648V32h5.699V17.689h4.46l.708-5.688h-5.169V8.082c.001-1.644.444-2.769 2.735-2.769z"/></symbol><symbol id="icon-Group" viewBox="0 0 36 32"><path d="M1.199 4.002a2.4 2.4 0 0 1 2.4-2.4h28.8a2.4 2.4 0 1 1 0 4.8h-28.8a2.4 2.4 0 0 1-2.4-2.4zM1.199 16.002a2.4 2.4 0 0 1 2.4-2.4h28.8a2.4 2.4 0 1 1 0 4.8h-28.8a2.4 2.4 0 0 1-2.4-2.4zM1.199 28.002a2.4 2.4 0 0 1 2.4-2.4h28.8a2.4 2.4 0 1 1 0 4.8h-28.8a2.4 2.4 0 0 1-2.4-2.4z"/></symbol></defs></svg>